<svg width="32.000000" height="32.000000" viewBox="0 0 32 32" fill="none" xmlns="http://www.w3.org/2000/svg" xmlns:xlink="http://www.w3.org/1999/xlink">
	<desc>
			Created with Pixso.
	</desc>
	<defs>
		<clipPath id="clip9_1012">
			<rect id="32icon-grid" rx="0.000000" width="31.000000" height="31.000000" transform="translate(0.500000 0.500000)" fill="white" fill-opacity="0"/>
		</clipPath>
		<clipPath id="clip9_1040">
			<rect id="Color=On" rx="0.000000" width="31.000000" height="31.000000" transform="translate(0.500000 0.500000)" fill="white" fill-opacity="0"/>
		</clipPath>
		<linearGradient x1="16.000000" y1="2.000000" x2="16.000000" y2="30.000084" id="paint_linear_9_1013_0" gradientUnits="userSpaceOnUse">
			<stop stop-color="#B2D4F7"/>
			<stop offset="1.000000" stop-color="#D9E2F3"/>
		</linearGradient>
		<linearGradient x1="16.000000" y1="2.000000" x2="16.000000" y2="30.000000" id="paint_linear_9_1039_0" gradientUnits="userSpaceOnUse">
			<stop stop-color="#B2D4F7"/>
			<stop offset="1.000000" stop-color="#D9E2F3"/>
		</linearGradient>
	</defs>
	<g clip-path="url(#clip9_1040)">
		<path id="outline" d="M11.53 8.05C11.88 8.01 12.24 8 12.6 8C17.46 8 21.56 11.38 22.82 16.01C22.92 16 23.02 16 23.12 16C23.08 16 23.04 16 23 16L22.96 16L22.96 16L24.5 16L24.56 16L24.56 15.99C26.46 15.96 28 14.41 28 12.5C28 10.56 26.43 9 24.5 9C23.85 9 23.24 9.17 22.72 9.48C22.72 8.92 22.63 8.38 22.47 7.87C21.7 5.62 19.55 4 17.03 4C14.44 4 12.25 5.7 11.53 8.05ZM27.17 17.3C28.88 18.57 30 20.65 30 23C30 26.86 26.97 30 23.24 30C23.16 30 23.08 29.99 23 29.99L23 30L12.76 30L12.76 29.99C12.71 29.99 12.66 30 12.6 30C6.74 30 2 25.07 2 19C2 14.09 5.09 9.93 9.37 8.52C9.96 4.82 13.17 2 17.03 2C20.34 2 23.17 4.07 24.28 7C24.35 7 24.42 7 24.5 7C27.53 7 30 9.46 30 12.5C30 14.56 28.86 16.36 27.17 17.3ZM23 28L12.76 28L12.65 28L12.65 28L12.6 28C7.92 28 4 24.03 4 19C4 13.96 7.92 10 12.6 10C16.58 10 20 12.85 20.95 16.79L20.95 16.78C21.09 17.33 21.17 17.9 21.21 18.48C21.83 18.17 22.52 18 23.24 18C25.8 18 28 20.16 28 23C28 25.81 25.83 27.96 23.3 27.99L23.3 28L23 28Z" fill="url(#paint_linear_9_1039_0)" fill-opacity="1.000000" fill-rule="evenodd"/>
	</g>
</svg>
