<svg width="32.000000" height="32.000000" viewBox="0 0 32 32" fill="none" xmlns="http://www.w3.org/2000/svg" xmlns:xlink="http://www.w3.org/1999/xlink">
	<desc>
			Created with Pixso.
	</desc>
	<defs>
		<clipPath id="clip9_1490">
			<rect id="32icon-grid" rx="0.000000" width="31.000000" height="31.000000" transform="translate(0.500000 0.500000)" fill="white" fill-opacity="0"/>
		</clipPath>
		<clipPath id="clip9_1514">
			<rect id="Color=On" rx="0.000000" width="31.000000" height="31.000000" transform="translate(0.500000 0.500000)" fill="white" fill-opacity="0"/>
		</clipPath>
		<linearGradient x1="20.876175" y1="1.999756" x2="20.876175" y2="17.092907" id="paint_linear_9_1560_0" gradientUnits="userSpaceOnUse">
			<stop stop-color="#EFC977"/>
			<stop offset="1.000000" stop-color="#E07256"/>
		</linearGradient>
		<linearGradient x1="15.999989" y1="8.250000" x2="15.999989" y2="30.000000" id="paint_linear_9_1492_0" gradientUnits="userSpaceOnUse">
			<stop stop-color="#B2D4F7"/>
			<stop offset="1.000000" stop-color="#D9E2F3"/>
		</linearGradient>
		<linearGradient x1="20.876175" y1="1.999756" x2="20.876175" y2="17.092907" id="paint_linear_9_1563_0" gradientUnits="userSpaceOnUse">
			<stop stop-color="#EFC977"/>
			<stop offset="1.000000" stop-color="#E07256"/>
		</linearGradient>
		<linearGradient x1="15.999989" y1="8.250000" x2="15.999989" y2="30.000000" id="paint_linear_9_1574_0" gradientUnits="userSpaceOnUse">
			<stop stop-color="#B2D4F7"/>
			<stop offset="1.000000" stop-color="#D9E2F3"/>
		</linearGradient>
	</defs>
	<g clip-path="url(#clip9_1514)">
		<rect id="for edit" rx="0.000000" width="27.000061" height="27.000000" transform="translate(2.500000 2.500000)" fill="#FFFFFF" fill-opacity="0"/>
		<path id="Union" d="M19.6362 4.43481L19.6362 1.99976L17.6362 1.99976L17.6362 4.43481L19.6362 4.43481ZM13.8203 3.02222L15.0378 5.1311L13.3059 6.1311L12.0881 4.02222L13.8203 3.02222ZM23.9668 6.1311L25.1843 4.02222L23.4521 3.02222L22.2346 5.1311L23.9668 6.1311ZM11.761 10.0718L11.7522 10.0718C12.9771 7.53662 15.5732 5.7876 18.5776 5.7876C22.7617 5.7876 26.1536 9.17944 26.1536 13.3635C26.1536 14.7192 25.7974 15.9919 25.1736 17.093C24.5432 16.8108 23.8564 16.6318 23.135 16.5769C23.7766 15.6687 24.1536 14.5601 24.1536 13.3635C24.1536 10.2842 21.6572 7.7876 18.5776 7.7876C16.6218 7.7876 14.9011 8.79468 13.9058 10.3186C13.217 10.1572 12.499 10.0718 11.761 10.0718ZM28.9778 8.54785L26.8689 9.76538L25.8689 8.0332L27.9778 6.81567L28.9778 8.54785ZM27.5649 14.3638L30.0002 14.3638L30.0002 12.3638L27.5649 12.3638L27.5649 14.3638Z" clip-rule="evenodd" fill="url(#paint_linear_9_1560_0)" fill-opacity="1.000000" fill-rule="evenodd"/>
		<path id="Union" d="M12.5 8.25C6.70093 8.25 2 13.1189 2 19.125C2 25.1311 6.70093 30 12.5 30C12.5659 30 12.6316 29.9993 12.697 29.998L12.697 30L22.9993 30L23.2415 30L23.2415 29.9958C26.9956 29.864 30 26.6704 30 22.75C30 18.7458 26.866 15.5 23 15.5C22.8018 15.5 22.6052 15.5085 22.4111 15.5254C20.9766 11.2883 17.0808 8.25 12.5 8.25ZM23.0044 28C25.7637 27.9976 28 25.6479 28 22.75C28 19.8506 25.7615 17.5 23 17.5C22.2629 17.5 21.5632 17.6675 20.9333 17.968C20.8469 17.2822 20.6846 16.6211 20.4556 15.9939L20.4558 15.9937C19.2434 12.6375 16.1387 10.25 12.5 10.25C7.80566 10.25 4 14.2234 4 19.125C4 24.0266 7.80566 28 12.5 28Q12.5205 28 12.541 28L12.541 28L12.697 28L23 28L23.0044 28Z" clip-rule="evenodd" fill="url(#paint_linear_9_1492_0)" fill-opacity="1.000000" fill-rule="evenodd"/>
		<rect id="outline" rx="0.000000" width="27.000061" height="27.000000" transform="translate(2.500000 2.500000)" fill="#FFFFFF" fill-opacity="0"/>
		<path id="Union" d="M19.6362 4.43481L19.6362 1.99976L17.6362 1.99976L17.6362 4.43481L19.6362 4.43481ZM13.8203 3.02222L15.0378 5.1311L13.3059 6.1311L12.0881 4.02222L13.8203 3.02222ZM23.9668 6.1311L25.1843 4.02222L23.4521 3.02222L22.2346 5.1311L23.9668 6.1311ZM11.761 10.0718L11.7522 10.0718C12.9771 7.53662 15.5732 5.7876 18.5776 5.7876C22.7617 5.7876 26.1536 9.17944 26.1536 13.3635C26.1536 14.7192 25.7974 15.9919 25.1736 17.093C24.5432 16.8108 23.8564 16.6318 23.135 16.5769C23.7766 15.6687 24.1536 14.5601 24.1536 13.3635C24.1536 10.2842 21.6572 7.7876 18.5776 7.7876C16.6218 7.7876 14.9011 8.79468 13.9058 10.3186C13.217 10.1572 12.499 10.0718 11.761 10.0718ZM28.9778 8.54785L26.8689 9.76538L25.8689 8.0332L27.9778 6.81567L28.9778 8.54785ZM27.5649 14.3638L30.0002 14.3638L30.0002 12.3638L27.5649 12.3638L27.5649 14.3638Z" clip-rule="evenodd" fill="url(#paint_linear_9_1563_0)" fill-opacity="1.000000" fill-rule="evenodd"/>
		<path id="Union" d="M12.5 8.25C6.70093 8.25 2 13.1189 2 19.125C2 25.1311 6.70093 30 12.5 30C12.5659 30 12.6316 29.9993 12.697 29.998L12.697 30L22.9993 30L23.2415 30L23.2415 29.9958C26.9956 29.864 30 26.6704 30 22.75C30 18.7458 26.866 15.5 23 15.5C22.8018 15.5 22.6052 15.5085 22.4111 15.5254C20.9766 11.2883 17.0808 8.25 12.5 8.25ZM23.0044 28C25.7637 27.9976 28 25.6479 28 22.75C28 19.8506 25.7615 17.5 23 17.5C22.2629 17.5 21.5632 17.6675 20.9333 17.968C20.8469 17.2822 20.6846 16.6211 20.4556 15.9939L20.4558 15.9937C19.2434 12.6375 16.1387 10.25 12.5 10.25C7.80566 10.25 4 14.2234 4 19.125C4 24.0266 7.80566 28 12.5 28Q12.5205 28 12.541 28L12.541 28L12.697 28L23 28L23.0044 28Z" clip-rule="evenodd" fill="url(#paint_linear_9_1574_0)" fill-opacity="1.000000" fill-rule="evenodd"/>
	</g>
</svg>
