<svg width="32.000000" height="32.000000" viewBox="0 0 32 32" fill="none" xmlns="http://www.w3.org/2000/svg" xmlns:xlink="http://www.w3.org/1999/xlink">
	<desc>
			Created with Pixso.
	</desc>
	<defs>
		<clipPath id="clip9_2006">
			<rect id="32icon-grid" rx="0.000000" width="31.000000" height="31.000000" transform="translate(0.500000 0.500000)" fill="white" fill-opacity="0"/>
		</clipPath>
		<clipPath id="clip9_2079">
			<rect id="Color=On" rx="0.000000" width="31.000000" height="31.000000" transform="translate(0.500000 0.500000)" fill="white" fill-opacity="0"/>
		</clipPath>
		<linearGradient x1="20.966259" y1="2.000000" x2="20.966259" y2="17.353634" id="paint_linear_9_2019_0" gradientUnits="userSpaceOnUse">
			<stop stop-color="#F5BD52"/>
			<stop offset="1.000000" stop-color="#F5DA79"/>
		</linearGradient>
		<linearGradient x1="15.999979" y1="8.000000" x2="15.999979" y2="30.000000" id="paint_linear_9_2008_0" gradientUnits="userSpaceOnUse">
			<stop stop-color="#B2D4F7"/>
			<stop offset="1.000000" stop-color="#D9E2F3"/>
		</linearGradient>
		<linearGradient x1="20.966259" y1="2.000000" x2="20.966259" y2="17.353666" id="paint_linear_9_2051_0" gradientUnits="userSpaceOnUse">
			<stop stop-color="#F5BD52"/>
			<stop offset="1.000000" stop-color="#F5DA79"/>
		</linearGradient>
		<linearGradient x1="15.999993" y1="8.000000" x2="15.999993" y2="30.000000" id="paint_linear_9_2052_0" gradientUnits="userSpaceOnUse">
			<stop stop-color="#B2D4F7"/>
			<stop offset="1.000000" stop-color="#D9E2F3"/>
		</linearGradient>
	</defs>
	<g clip-path="url(#clip9_2079)">
		<rect id="outline" rx="0.000000" width="26.999987" height="27.000000" transform="translate(2.500000 2.500000)" fill="#FFFFFF" fill-opacity="0"/>
		<path id="Union" d="M27.31 17.35C26.79 16.89 26.16 16.53 25.48 16.31C26.79 15.22 27.68 13.68 27.93 11.95C27.85 11.99 27.78 12.02 27.7 12.05C27.64 12.07 27.58 12.1 27.52 12.12C26.7 12.42 25.83 12.55 24.94 12.5L24.92 12.5C23.36 12.41 21.88 11.76 20.77 10.67L20.76 10.66C19.76 9.67 19.13 8.38 18.97 7.01C18.95 6.86 18.94 6.71 18.93 6.56C18.9 5.73 19.03 4.91 19.32 4.14C16.77 4.65 14.74 6.47 13.95 8.81C13.29 8.66 12.62 8.58 11.93 8.56C13.01 4.77 16.57 2 20.79 2C21.77 2 22.71 2.14 23.59 2.42C22.78 2.75 22.09 3.32 21.62 4.04C21.62 4.04 21.61 4.04 21.61 4.04C21.14 4.76 20.91 5.61 20.95 6.47C20.95 6.57 20.96 6.67 20.97 6.76C21.08 7.7 21.51 8.59 22.19 9.27L22.2 9.28C22.96 10.03 23.98 10.47 25.05 10.53L25.07 10.53C25.72 10.56 26.36 10.45 26.95 10.21C27.34 10.06 27.7 9.85 28.03 9.59L28.03 9.59C28.63 9.11 29.1 8.47 29.37 7.73C29.77 8.74 30 9.84 30 11C30 13.48 28.97 15.72 27.31 17.35Z" fill="url(#paint_linear_9_2051_0)" fill-opacity="1.000000" fill-rule="evenodd"/>
		<path id="Union" d="M12.5 28L12.55 27.99L12.55 28L23 28L23 28C25.67 28 28 25.7 28 22.66C28 19.63 25.67 17.33 23 17.33C22.26 17.33 21.56 17.5 20.92 17.81C20.84 17.12 20.68 16.46 20.45 15.83L20.46 15.83C19.23 12.38 16.08 10 12.5 10C7.89 10 4 13.94 4 19C4 24.05 7.89 28 12.5 28ZM23 30C26.86 30 30 26.71 30 22.66C30 18.61 26.86 15.33 23 15.33C22.8 15.33 22.6 15.34 22.41 15.35C20.97 11.07 17.08 8 12.5 8C6.7 8 2 12.92 2 19C2 25.07 6.7 30 12.5 30C12.5 30 12.51 30 12.52 30L12.52 30L23 30L23 30Z" fill="url(#paint_linear_9_2052_0)" fill-opacity="1.000000" fill-rule="evenodd"/>
	</g>
</svg>
