<svg width="32.000000" height="32.000000" viewBox="0 0 32 32" fill="none" xmlns="http://www.w3.org/2000/svg" xmlns:xlink="http://www.w3.org/1999/xlink">
	<desc>
			Created with Pixso.
	</desc>
	<defs>
		<clipPath id="clip9_3395">
			<rect id="32icon-grid" rx="0.000000" width="31.000000" height="31.000000" transform="translate(0.500000 0.500000)" fill="white" fill-opacity="0"/>
		</clipPath>
		<clipPath id="clip9_3466">
			<rect id="Color=On" rx="0.000000" width="31.000000" height="31.000000" transform="translate(0.500000 0.500000)" fill="white" fill-opacity="0"/>
		</clipPath>
		<linearGradient x1="24.801453" y1="2.000000" x2="24.801453" y2="12.314702" id="paint_linear_9_3415_0" gradientUnits="userSpaceOnUse">
			<stop stop-color="#F5BD52"/>
			<stop offset="1.000000" stop-color="#F5DA79"/>
		</linearGradient>
		<linearGradient x1="15.999937" y1="2.000000" x2="15.999937" y2="29.000031" id="paint_linear_9_3429_0" gradientUnits="userSpaceOnUse">
			<stop stop-color="#95B6F6"/>
			<stop offset="1.000000" stop-color="#5193DE"/>
		</linearGradient>
		<linearGradient x1="24.801960" y1="2.000244" x2="24.801960" y2="12.314974" id="paint_linear_9_3464_0" gradientUnits="userSpaceOnUse">
			<stop stop-color="#F5BD52"/>
			<stop offset="1.000000" stop-color="#F5DA79"/>
		</linearGradient>
		<linearGradient x1="16.000000" y1="2.000000" x2="16.000000" y2="29.000000" id="paint_linear_9_3465_0" gradientUnits="userSpaceOnUse">
			<stop stop-color="#95B6F6"/>
			<stop offset="1.000000" stop-color="#5193DE"/>
		</linearGradient>
	</defs>
	<g clip-path="url(#clip9_3466)">
		<rect id="outline" rx="0.000000" width="27.001989" height="26.000000" transform="translate(2.500000 2.500000)" fill="#FFFFFF" fill-opacity="0"/>
		<path id="Subtract" d="M29.81 8.76C30.03 7.97 30.05 7.16 29.91 6.4C29.37 7.64 28 8.34 26.64 8C26.2 7.89 25.81 7.67 25.49 7.39C25.35 7.29 25.22 7.17 25.11 7.03C24.91 6.8 24.76 6.52 24.68 6.22L24.67 6.19C24.5 5.69 24.47 5.13 24.61 4.58C24.89 3.46 25.81 2.67 26.88 2.49C26.61 2.37 26.32 2.26 26.01 2.18C23.32 1.46 20.56 2.92 19.6 5.48C20.22 6.03 20.78 6.66 21.25 7.35C21.25 7.07 21.29 6.78 21.37 6.5C21.58 5.7 22.06 5.05 22.69 4.61C22.66 4.73 22.63 4.86 22.61 4.99C22.52 5.58 22.55 6.19 22.71 6.77C22.87 7.34 23.15 7.88 23.53 8.34C23.92 8.8 24.39 9.18 24.93 9.44C25.47 9.7 26.06 9.85 26.66 9.86C26.74 9.86 26.82 9.86 26.9 9.86C26.08 10.61 24.9 10.94 23.75 10.63C23.3 10.51 22.9 10.3 22.55 10.03C22.65 10.35 22.73 10.67 22.8 11C22.86 11 22.93 10.99 22.99 10.99C24.41 10.99 25.72 11.49 26.74 12.31C28.2 11.68 29.37 10.42 29.81 8.76Z" fill="url(#paint_linear_9_3464_0)" fill-opacity="1.000000" fill-rule="evenodd"/>
		<path id="Union" d="M30 17C30 20.23 27.87 22.96 25 23.76L25 21.64C26.73 20.92 28 19.15 28 17C28 14.16 25.8 12 23.24 12C22.52 12 21.83 12.17 21.21 12.48C21.17 11.9 21.09 11.33 20.96 10.78L20.95 10.79C20 6.85 16.58 4 12.6 4C7.92 4 4 7.96 4 13C4 16.22 5.61 19.01 8 20.6L8 22.91C4.44 21.13 2 17.36 2 13C2 6.92 6.74 2 12.6 2C17.46 2 21.56 5.38 22.82 10.01C22.96 10 23.1 10 23.24 10C26.97 10 30 13.13 30 17ZM10 22.4C10 21.93 10.15 21.41 10.36 20.92C10.8 19.88 11.5 19 11.5 19C11.5 19 12.16 19.91 12.6 20.92C12.83 21.43 13 21.96 13 22.4C13 23.28 12.33 24 11.5 24C10.67 24 10 23.28 10 22.4ZM15.36 20.92C15.15 21.41 15 21.93 15 22.4C15 23.28 15.67 24 16.5 24C17.33 24 18 23.28 18 22.4C18 21.96 17.83 21.43 17.6 20.92C17.16 19.91 16.5 19 16.5 19C16.5 19 15.8 19.88 15.36 20.92ZM12.87 27.4C12.87 26.93 13.02 26.41 13.23 25.92C13.67 24.88 14.37 24 14.37 24C14.37 24 15.03 24.91 15.48 25.92C15.7 26.43 15.87 26.96 15.87 27.4C15.87 28.28 15.2 29 14.37 29C13.54 29 12.87 28.28 12.87 27.4ZM20.36 20.92C20.15 21.41 20 21.93 20 22.4C20 23.28 20.67 24 21.5 24C22.33 24 23 23.28 23 22.4C23 21.96 22.83 21.43 22.6 20.92C22.16 19.91 21.5 19 21.5 19C21.5 19 20.8 19.88 20.36 20.92ZM17.89 27.4C17.89 26.93 18.04 26.41 18.25 25.92C18.69 24.88 19.38 24 19.38 24C19.38 24 20.05 24.91 20.49 25.92C20.72 26.43 20.89 26.96 20.89 27.4C20.89 28.28 20.21 29 19.39 29C18.56 29 17.89 28.28 17.89 27.4Z" fill="url(#paint_linear_9_3465_0)" fill-opacity="1.000000" fill-rule="evenodd"/>
	</g>
</svg>
