<svg width="32.000000" height="32.000000" viewBox="0 0 32 32" fill="none" xmlns="http://www.w3.org/2000/svg" xmlns:xlink="http://www.w3.org/1999/xlink">
	<desc>
			Created with Pixso.
	</desc>
	<defs>
		<clipPath id="clip9_3274">
			<rect id="32icon-grid" rx="0.000000" width="31.000000" height="31.000000" transform="translate(0.500000 0.500000)" fill="white" fill-opacity="0"/>
		</clipPath>
		<clipPath id="clip9_3327">
			<rect id="Color=On" rx="0.000000" width="31.000000" height="31.000000" transform="translate(0.500000 0.500000)" fill="white" fill-opacity="0"/>
		</clipPath>
		<linearGradient x1="23.831673" y1="2.000000" x2="23.831673" y2="13.884732" id="paint_linear_9_3294_0" gradientUnits="userSpaceOnUse">
			<stop stop-color="#EFC977"/>
			<stop offset="1.000000" stop-color="#E07256"/>
		</linearGradient>
		<linearGradient x1="15.999937" y1="2.000000" x2="15.999937" y2="29.000031" id="paint_linear_9_3300_0" gradientUnits="userSpaceOnUse">
			<stop stop-color="#95B6F6"/>
			<stop offset="1.000000" stop-color="#5193DE"/>
		</linearGradient>
		<linearGradient x1="23.831673" y1="2.000000" x2="23.831673" y2="13.884732" id="paint_linear_9_3303_0" gradientUnits="userSpaceOnUse">
			<stop stop-color="#EFC977"/>
			<stop offset="1.000000" stop-color="#E07256"/>
		</linearGradient>
		<linearGradient x1="15.999937" y1="2.000000" x2="15.999937" y2="29.000031" id="paint_linear_9_3308_0" gradientUnits="userSpaceOnUse">
			<stop stop-color="#95B6F6"/>
			<stop offset="1.000000" stop-color="#5193DE"/>
		</linearGradient>
	</defs>
	<g clip-path="url(#clip9_3327)">
		<rect id="outline" rx="0.000000" width="27.000076" height="26.000000" transform="translate(2.500000 2.500000)" fill="#FFFFFF" fill-opacity="0"/>
		<path id="Subtract" d="M17.6633 4.15161C18.2717 4.4729 18.8428 4.85522 19.3687 5.29004C20.2844 4.48682 21.4844 4 22.7979 4C25.6709 4 28 6.3291 28 9.20215C28 10.3064 27.656 11.3303 27.0691 12.1726C27.55 12.6775 27.9563 13.2542 28.27 13.8848C29.3486 12.6257 30 10.99 30 9.20215C30 5.22461 26.7756 2 22.7979 2C20.7876 2 18.9697 2.82349 17.6633 4.15161Z" clip-rule="evenodd" fill="url(#paint_linear_9_3303_0)" fill-opacity="1.000000" fill-rule="evenodd"/>
		<path id="Union" d="M12.6084 2C6.74951 2 2 6.9248 2 13C2 17.3628 4.44946 21.1323 8 22.9106L8 20.603C5.5957 19.0068 4 16.1982 4 13C4 8.02954 7.854 4 12.6084 4C16.6338 4 20.0139 6.88867 20.9556 10.7917C20.957 10.791 20.9583 10.7905 20.9597 10.79C21.0933 11.3359 21.1787 11.9019 21.2104 12.4824C21.8284 12.1731 22.5195 12 23.2493 12C25.8728 12 27.9998 14.2385 27.9998 17C27.9998 19.1106 26.7573 20.916 25 21.6494L25 23.7622C27.8794 22.9626 29.9998 20.238 29.9998 17C29.9998 13.134 26.9775 10 23.2493 10C23.1055 10 22.9626 10.0046 22.821 10.0139C21.5662 5.38965 17.469 2 12.6084 2ZM13.001 22.4092C13.0007 21.9619 12.8328 21.4321 12.6089 20.925C12.1641 19.9175 11.5 19 11.5 19C11.5 19 10.8044 19.8855 10.3608 20.9243C10.1533 21.4109 10.0007 21.9307 10.001 22.4092C10.0012 23.2878 10.6731 24 11.5015 24C12.3298 24 13.0012 23.2878 13.001 22.4092ZM17.6089 20.925C17.8328 21.4321 18.0007 21.9619 18.001 22.4092C18.0012 23.2878 17.3298 24 16.5015 24C15.6731 24 15.0012 23.2878 15.001 22.4092C15.0007 21.9307 15.1533 21.4109 15.3608 20.9243C15.8044 19.8855 16.5 19 16.5 19C16.5 19 17.1641 19.9175 17.6089 20.925ZM22.6089 20.925C22.8328 21.4321 23.0007 21.9619 23.001 22.4092C23.0012 23.2878 22.3298 24 21.5015 24C20.6731 24 20.0012 23.2878 20.001 22.4092C20.0007 21.9307 20.1533 21.4109 20.3608 20.9243C20.8044 19.8855 21.5 19 21.5 19C21.5 19 22.1641 19.9175 22.6089 20.925ZM15.8755 27.4092C15.8752 26.9619 15.7073 26.4321 15.4834 25.925C15.0386 24.9175 14.3745 24 14.3745 24C14.3745 24 13.679 24.8855 13.2354 25.9243C13.0278 26.4109 12.8752 26.9307 12.8755 27.4092C12.8757 28.2878 13.5476 29 14.376 29C15.2043 29 15.8757 28.2878 15.8755 27.4092ZM20.8904 27.4092C20.8901 26.9619 20.7222 26.4321 20.4983 25.925C20.0535 24.9175 19.3894 24 19.3894 24C19.3894 24 18.6938 24.8855 18.2502 25.9243C18.0427 26.4109 17.8901 26.9307 17.8904 27.4092C17.8906 28.2878 18.5625 29 19.3909 29C20.2192 29 20.8906 28.2878 20.8904 27.4092Z" clip-rule="evenodd" fill="url(#paint_linear_9_3308_0)" fill-opacity="1.000000" fill-rule="evenodd"/>
	</g>
</svg>
