<svg width="32.000000" height="32.000000" viewBox="0 0 32 32" fill="none" xmlns="http://www.w3.org/2000/svg" xmlns:xlink="http://www.w3.org/1999/xlink">
	<desc>
			Created with Pixso.
	</desc>
	<defs>
		<clipPath id="clip9_2134">
			<rect id="32icon-grid" rx="0.000000" width="31.000000" height="31.000000" transform="translate(0.500000 0.500000)" fill="white" fill-opacity="0"/>
		</clipPath>
		<clipPath id="clip9_2192">
			<rect id="Color=On" rx="0.000000" width="31.000000" height="31.000000" transform="translate(0.500000 0.500000)" fill="white" fill-opacity="0"/>
		</clipPath>
		<linearGradient x1="15.999968" y1="3.000000" x2="15.999968" y2="27.999937" id="paint_linear_9_2135_0" gradientUnits="userSpaceOnUse">
			<stop stop-color="#CED3EA"/>
			<stop offset="1.000000" stop-color="#7E83A9"/>
		</linearGradient>
		<linearGradient x1="15.999969" y1="3.000000" x2="15.999969" y2="28.000000" id="paint_linear_9_2154_0" gradientUnits="userSpaceOnUse">
			<stop stop-color="#CED3EA"/>
			<stop offset="1.000000" stop-color="#7E83A9"/>
		</linearGradient>
	</defs>
	<g clip-path="url(#clip9_2192)">
		<path id="outline" d="M28 17.1C28 19.38 26.52 21.28 24.5 21.93L24.5 24C27.64 23.3 30 20.48 30 17.1C30 13.21 26.86 10.05 23 10.05C22.8 10.05 22.6 10.06 22.41 10.07C20.97 5.95 17.08 3 12.5 3C6.7 3 2 7.73 2 13.58C2 17.99 4.68 21.78 8.5 23.36L8.5 21.15C5.82 19.71 4 16.86 4 13.58C4 8.82 7.82 5 12.5 5C16.12 5 19.23 7.29 20.45 10.53L20.45 10.53C20.68 11.15 20.85 11.81 20.93 12.5C21.56 12.21 22.26 12.05 23 12.05C25.74 12.05 28 14.3 28 17.1ZM23 18L13 18L13 20L23 20L23 18ZM21 22L11 22L11 24L21 24L21 22ZM13 26L23 26L23 28L13 28L13 26Z" fill="url(#paint_linear_9_2154_0)" fill-opacity="1.000000" fill-rule="evenodd"/>
	</g>
</svg>
