<svg width="32.000000" height="32.000000" viewBox="0 0 32 32" fill="none" xmlns="http://www.w3.org/2000/svg" xmlns:xlink="http://www.w3.org/1999/xlink">
	<desc>
			Created with Pixso.
	</desc>
	<defs>
		<clipPath id="clip9_1859">
			<rect id="32icon-grid" rx="0.000000" width="31.000000" height="31.000000" transform="translate(0.500000 0.500000)" fill="white" fill-opacity="0"/>
		</clipPath>
		<clipPath id="clip9_1949">
			<rect id="Color=On" rx="0.000000" width="31.000000" height="31.000000" transform="translate(0.500000 0.500000)" fill="white" fill-opacity="0"/>
		</clipPath>
		<linearGradient x1="18.502239" y1="2.000244" x2="18.502239" y2="24.438881" id="paint_linear_9_1872_0" gradientUnits="userSpaceOnUse">
			<stop stop-color="#F5BD52"/>
			<stop offset="1.000000" stop-color="#F5DA79"/>
		</linearGradient>
		<linearGradient x1="12.003151" y1="15.129150" x2="12.003151" y2="30.000107" id="paint_linear_9_1861_0" gradientUnits="userSpaceOnUse">
			<stop stop-color="#B2D4F7"/>
			<stop offset="1.000000" stop-color="#D9E2F3"/>
		</linearGradient>
		<linearGradient x1="18.502239" y1="2.000000" x2="18.502239" y2="24.438614" id="paint_linear_9_1920_0" gradientUnits="userSpaceOnUse">
			<stop stop-color="#F5BD52"/>
			<stop offset="1.000000" stop-color="#F5DA79"/>
		</linearGradient>
		<linearGradient x1="12.003323" y1="15.129395" x2="12.003323" y2="30.000202" id="paint_linear_9_1921_0" gradientUnits="userSpaceOnUse">
			<stop stop-color="#B2D4F7"/>
			<stop offset="1.000000" stop-color="#D9E2F3"/>
		</linearGradient>
	</defs>
	<g clip-path="url(#clip9_1949)">
		<rect id="outline" rx="0.000000" width="27.000000" height="27.000000" transform="translate(2.500000 2.500000)" fill="#FFFFFF" fill-opacity="0"/>
		<path id="Union" d="M28.11 11.58C27.04 12.64 25.61 13.25 24.11 13.3C22.58 13.35 21.09 12.82 19.95 11.8C18.81 10.79 18.11 9.38 18 7.87C17.88 6.39 18.34 4.92 19.28 3.76C19.78 3.16 20.4 2.66 21.11 2.29C20.27 2.1 19.39 2 18.5 2C12.15 2 7 7.09 7 13.38C7 14.77 7.25 16.1 7.71 17.32C8.25 16.94 8.86 16.63 9.51 16.42C9.18 15.47 9 14.45 9 13.38C9 8.83 12.29 5.01 16.68 4.17C16.13 5.36 15.88 6.69 15.99 8.02C16.14 10.05 17.08 11.93 18.6 13.29C20.13 14.65 22.12 15.37 24.17 15.3C25.52 15.26 26.82 14.87 27.96 14.21C27.6 18.34 24.51 21.73 20.47 22.57C20.89 23.1 21.18 23.74 21.29 24.43C26.29 23.2 30 18.72 30 13.38C30 12.09 29.78 10.84 29.37 9.68C29.08 10.4 28.65 11.04 28.11 11.58Z" fill="url(#paint_linear_9_1920_0)" fill-opacity="1.000000" fill-rule="evenodd"/>
		<path id="Union" d="M9.5 27.99L9.52 27.99L9.52 27.99L12.99 27.99C12.99 27.99 12.99 27.99 12.99 27.99L12.99 27.99C12.99 27.99 12.99 27.99 12.99 27.99L16.77 27.99C16.77 27.99 16.78 27.99 16.79 27.99L17 27.99L17 28C17 28 17 28 17 28C18.66 28 20 26.65 20 24.99C20 23.34 18.66 21.99 17 21.99C16.23 21.99 15.53 22.28 15 22.76C15 22.69 15 22.62 15 22.56C15 21.89 14.88 21.25 14.66 20.65L14.65 20.66C13.88 18.6 11.87 17.12 9.5 17.12C6.44 17.12 4 19.57 4 22.56C4 25.54 6.44 27.99 9.5 27.99ZM16.72 29.99C16.82 29.99 16.91 30 17 30C19.76 30 22 27.76 22 24.99C22 22.23 19.76 19.99 17 19.99C16.85 19.99 16.7 20 16.55 20.01C15.5 17.16 12.74 15.12 9.5 15.12C5.35 15.12 2 18.45 2 22.56C2 26.66 5.35 29.99 9.5 29.99C9.5 29.99 9.5 29.99 9.5 29.99L9.5 29.99L16.72 29.99Z" fill="url(#paint_linear_9_1921_0)" fill-opacity="1.000000" fill-rule="evenodd"/>
	</g>
</svg>
