<svg width="32.000000" height="32.000000" viewBox="0 0 32 32" fill="none" xmlns="http://www.w3.org/2000/svg" xmlns:xlink="http://www.w3.org/1999/xlink">
	<desc>
			Created with Pixso.
	</desc>
	<defs>
		<clipPath id="clip9_1374">
			<rect id="32icon-grid" rx="0.000000" width="31.000000" height="31.000000" transform="translate(0.500000 0.500000)" fill="white" fill-opacity="0"/>
		</clipPath>
		<clipPath id="clip9_1432">
			<rect id="Color=On" rx="0.000000" width="31.000000" height="31.000000" transform="translate(0.500000 0.500000)" fill="white" fill-opacity="0"/>
		</clipPath>
		<linearGradient x1="16.000000" y1="2.000000" x2="16.000000" y2="23.866026" id="paint_linear_9_1387_0" gradientUnits="userSpaceOnUse">
			<stop stop-color="#EFC977"/>
			<stop offset="1.000000" stop-color="#E07256"/>
		</linearGradient>
		<linearGradient x1="13.999886" y1="14.999512" x2="13.999886" y2="29.999771" id="paint_linear_9_1376_0" gradientUnits="userSpaceOnUse">
			<stop stop-color="#B2D4F7"/>
			<stop offset="1.000000" stop-color="#D9E2F3"/>
		</linearGradient>
		<linearGradient x1="16.000000" y1="2.000000" x2="16.000000" y2="23.866026" id="paint_linear_9_1558_0" gradientUnits="userSpaceOnUse">
			<stop stop-color="#EFC977"/>
			<stop offset="1.000000" stop-color="#E07256"/>
		</linearGradient>
		<linearGradient x1="14.000010" y1="14.999756" x2="14.000010" y2="29.999886" id="paint_linear_9_1559_0" gradientUnits="userSpaceOnUse">
			<stop stop-color="#B2D4F7"/>
			<stop offset="1.000000" stop-color="#D9E2F3"/>
		</linearGradient>
	</defs>
	<g clip-path="url(#clip9_1432)">
		<rect id="outline" rx="0.000000" width="27.000000" height="26.999886" transform="translate(2.500000 2.500000)" fill="#FFFFFF" fill-opacity="0"/>
		<path id="Subtract" d="M15 2L15 5L17 5L17 2L15 2ZM20.61 21.26C22.07 19.98 23 18.09 23 16C23 12.13 19.86 9 16 9C12.13 9 9 12.13 9 16C9 16.14 9 16.28 9.01 16.42C8.32 16.66 7.68 17 7.11 17.41C7.03 16.95 7 16.48 7 16C7 11.02 11.02 7 16 7C20.97 7 25 11.02 25 16C25 18.46 24 20.7 22.39 22.33C21.88 21.86 21.28 21.49 20.61 21.26ZM27 15L30 15L30 17L27 17L27 15ZM27.62 8.13L25.02 9.63L26.02 11.36L28.62 9.86L27.62 8.13ZM20.63 5.97L22.13 3.37L23.86 4.37L22.36 6.97L20.63 5.97ZM8.13 4.37L9.63 6.97L11.36 5.97L9.86 3.37L8.13 4.37ZM5.97 11.36L3.37 9.86L4.37 8.13L6.97 9.63L5.97 11.36ZM5 15L2 15L2 17L5 17L5 15ZM27.62 23.86L25.02 22.36L26.02 20.63L28.62 22.13L27.62 23.86Z" fill="url(#paint_linear_9_1558_0)" fill-opacity="1.000000" fill-rule="evenodd"/>
		<path id="Union" d="M11.5 27.99C11.52 27.99 11.55 27.99 11.58 27.99L18.93 27.99C18.94 27.99 18.95 27.99 18.97 27.99L19 27.99L19 28C19 28 19 28 19 28C20.65 28 22 26.65 22 25C22 23.34 20.65 21.99 19 21.99C18.23 21.99 17.52 22.28 16.99 22.76C17 22.67 17 22.58 17 22.5C17 21.82 16.88 21.17 16.65 20.58C17.35 20.2 18.15 19.99 19 19.99C21.76 19.99 24 22.23 24 25C24 27.76 21.76 30 19 30C18.98 30 18.97 29.99 18.96 29.99L11.53 29.99L11.53 29.99C11.52 29.99 11.51 29.99 11.5 29.99C7.35 29.99 4 26.64 4 22.49C4 18.35 7.35 14.99 11.5 14.99C14.77 14.99 17.55 17.09 18.57 20.01C17.88 20.07 17.23 20.27 16.65 20.58C15.87 18.49 13.86 16.99 11.5 16.99C8.46 16.99 6 19.46 6 22.49C6 25.53 8.46 27.99 11.5 27.99Z" fill="url(#paint_linear_9_1559_0)" fill-opacity="1.000000" fill-rule="evenodd"/>
	</g>
</svg>
