<svg width="32.000000" height="32.000000" viewBox="0 0 32 32" fill="none" xmlns="http://www.w3.org/2000/svg" xmlns:xlink="http://www.w3.org/1999/xlink">
	<desc>
			Created with Pixso.
	</desc>
	<defs>
		<clipPath id="clip9_2871">
			<rect id="32icon-grid" rx="0.000000" width="31.000000" height="31.000000" transform="translate(0.500000 0.500000)" fill="white" fill-opacity="0"/>
		</clipPath>
		<clipPath id="clip9_2904">
			<rect id="Color=On" rx="0.000000" width="31.000000" height="31.000000" transform="translate(0.500000 0.500000)" fill="white" fill-opacity="0"/>
		</clipPath>
		<linearGradient x1="15.999937" y1="2.000000" x2="15.999937" y2="30.002197" id="paint_linear_9_2872_0" gradientUnits="userSpaceOnUse">
			<stop stop-color="#95B6F6"/>
			<stop offset="1.000000" stop-color="#5193DE"/>
		</linearGradient>
		<linearGradient x1="16.000000" y1="2.000000" x2="16.000000" y2="30.002127" id="paint_linear_9_2888_0" gradientUnits="userSpaceOnUse">
			<stop stop-color="#95B6F6"/>
			<stop offset="1.000000" stop-color="#5193DE"/>
		</linearGradient>
	</defs>
	<g clip-path="url(#clip9_2904)">
		<path id="outline" d="M24 23.95C27.37 23.57 30 20.6 30 17C30 13.13 26.97 10 23.24 10C23.1 10 22.96 10 22.82 10.01C21.56 5.38 17.46 2 12.6 2C6.74 2 2 6.92 2 13C2 18.14 5.4 22.45 10 23.66L10 21.57C6.55 20.42 4 17.06 4 13C4 7.96 7.92 4 12.6 4C16.58 4 20 6.85 20.95 10.79L20.96 10.78C21.09 11.33 21.17 11.9 21.21 12.48C21.83 12.17 22.52 12 23.24 12C25.8 12 28 14.16 28 17C28 19.54 26.22 21.56 24 21.93L24 23.95ZM13.5 28C13.74 28 14 27.79 14 27.45C14 27.27 13.93 26.92 13.74 26.41C13.66 26.21 13.57 26 13.47 25.79C13.17 26.44 13 27.02 13 27.45C13 27.79 13.26 28 13.5 28ZM12.29 23.75C12.9 22.73 13.5 22 13.5 22C13.5 22 14.06 22.75 14.66 23.77C15.31 24.89 16 26.33 16 27.45C16 28.86 14.88 30 13.5 30C12.12 30 11 28.86 11 27.45C11 26.22 11.65 24.83 12.29 23.75ZM20 24.45C20 24.79 19.74 25 19.5 25C19.26 25 19 24.79 19 24.45C19 24.02 19.17 23.44 19.47 22.79C19.57 23 19.66 23.21 19.74 23.41C19.93 23.92 20 24.27 20 24.45ZM19.5 19C19.5 19 18.9 19.73 18.29 20.75C17.65 21.83 17 23.22 17 24.45C17 25.86 18.12 27 19.5 27C20.88 27 22 25.86 22 24.45C22 23.33 21.31 21.89 20.66 20.77C20.06 19.75 19.5 19 19.5 19Z" fill="url(#paint_linear_9_2888_0)" fill-opacity="1.000000" fill-rule="evenodd"/>
	</g>
</svg>
