<svg width="32.000000" height="32.000000" viewBox="0 0 32 32" fill="none" xmlns="http://www.w3.org/2000/svg" xmlns:xlink="http://www.w3.org/1999/xlink">
	<desc>
			Created with Pixso.
	</desc>
	<defs>
		<clipPath id="clip9_3060">
			<rect id="32icon-grid" rx="0.000000" width="31.000000" height="31.000000" transform="translate(0.500000 0.500000)" fill="white" fill-opacity="0"/>
		</clipPath>
		<clipPath id="clip9_3138">
			<rect id="Color=On" rx="0.000000" width="31.000000" height="31.000000" transform="translate(0.500000 0.500000)" fill="white" fill-opacity="0"/>
		</clipPath>
		<linearGradient x1="24.802067" y1="1.999512" x2="24.802067" y2="12.314504" id="paint_linear_9_3077_0" gradientUnits="userSpaceOnUse">
			<stop stop-color="#F5BD52"/>
			<stop offset="1.000000" stop-color="#F5DA79"/>
		</linearGradient>
		<linearGradient x1="15.999937" y1="2.000000" x2="15.999937" y2="30.002197" id="paint_linear_9_3106_0" gradientUnits="userSpaceOnUse">
			<stop stop-color="#95B6F6"/>
			<stop offset="1.000000" stop-color="#5193DE"/>
		</linearGradient>
		<linearGradient x1="24.802067" y1="1.999512" x2="24.802067" y2="12.314504" id="paint_linear_9_3109_0" gradientUnits="userSpaceOnUse">
			<stop stop-color="#F5BD52"/>
			<stop offset="1.000000" stop-color="#F5DA79"/>
		</linearGradient>
		<linearGradient x1="15.999937" y1="2.000000" x2="15.999937" y2="30.002197" id="paint_linear_9_3122_0" gradientUnits="userSpaceOnUse">
			<stop stop-color="#95B6F6"/>
			<stop offset="1.000000" stop-color="#5193DE"/>
		</linearGradient>
	</defs>
	<g clip-path="url(#clip9_3138)">
		<rect id="outline" rx="0.000000" width="27.001989" height="27.002127" transform="translate(2.500000 2.500000)" fill="#FFFFFF" fill-opacity="0"/>
		<path id="Subtract" d="M24.6104 4.58423C24.894 3.46313 25.8145 2.67163 26.8877 2.4978C26.6125 2.37061 26.3228 2.26514 26.02 2.18408C23.3257 1.46143 20.5605 2.9231 19.6021 5.48413C20.2285 6.03564 20.7854 6.66431 21.2581 7.35522C21.26 7.07349 21.2974 6.78735 21.3738 6.50244C21.5874 5.70459 22.0693 5.05078 22.696 4.61157C22.4768 5.46387 22.5374 6.33228 22.8252 7.11182C23.1714 8.05396 23.8206 8.79761 24.6216 9.27368C25.3374 9.70117 26.1296 9.89014 26.906 9.86475C26.085 10.6155 24.9106 10.9443 23.7571 10.635C23.3057 10.5139 22.9001 10.3066 22.5537 10.0354C22.6516 10.3513 22.7341 10.6738 22.8005 11.0022C22.8667 11 22.9333 10.999 23 10.999C24.4182 10.999 25.7214 11.4912 26.7483 12.3145C28.2073 11.6868 29.3748 10.4207 29.8176 8.76636C30.0312 7.96948 30.054 7.16626 29.9138 6.40552C29.3728 7.64404 28.0002 8.34497 26.647 8.00195C26.2036 7.88965 25.8118 7.67773 25.4893 7.39624C25.1394 7.13867 24.887 6.79028 24.7449 6.40356C24.7197 6.33594 24.6985 6.26782 24.6807 6.19946C24.5051 5.69678 24.47 5.13892 24.6104 4.58423Z" clip-rule="evenodd" fill="url(#paint_linear_9_3109_0)" fill-opacity="1.000000" fill-rule="evenodd"/>
		<path id="Union" d="M2 13C2 6.9248 6.74951 2 12.6084 2C17.469 2 21.5662 5.38965 22.821 10.0139C22.9626 10.0046 23.1055 10 23.2493 10C26.9775 10 29.9998 13.134 29.9998 17C29.9998 20.6028 27.375 23.5701 24 23.9573L24 21.938C26.2668 21.5591 27.9998 19.4924 27.9998 17C27.9998 14.2385 25.8728 12 23.2493 12C22.5195 12 21.8284 12.1731 21.2104 12.4824C21.1787 11.9019 21.0933 11.3359 20.9597 10.79C20.9583 10.7905 20.957 10.791 20.9556 10.7917C20.0139 6.88867 16.6338 4 12.6084 4C7.854 4 4 8.02954 4 13C4 17.02 6.52075 20.4243 10 21.5793L10 23.665C5.40234 22.4597 2 18.1418 2 13ZM22.002 24.4561C22.0024 25.8623 20.8835 27.0022 19.5027 27.0022C18.1218 27.0022 17.002 25.8623 17.0017 24.4561C17.0012 23.229 17.6541 21.8311 18.2922 20.7573C18.9028 19.7302 19.5002 19 19.5002 19C19.5002 19 20.0698 19.7556 20.6655 20.7778C21.3179 21.8977 22.0017 23.3379 22.002 24.4561ZM13.5027 30.0022C14.8835 30.0022 16.0024 28.8623 16.002 27.4561C16.0017 26.3379 15.3179 24.8977 14.6655 23.7778C14.0698 22.7556 13.5002 22 13.5002 22C13.5002 22 12.9028 22.7302 12.2922 23.7573C11.6541 24.8311 11.0012 26.229 11.0017 27.4561C11.002 28.8623 12.1218 30.0022 13.5027 30.0022ZM19.7434 23.4167Q19.6296 23.1199 19.4741 22.7927Q19.3552 23.051 19.2639 23.2947Q19.0015 23.9944 19.0017 24.4561Q19.0017 24.5913 19.0535 24.7021L19.0537 24.7021Q19.0928 24.7856 19.1611 24.8552Q19.2446 24.9402 19.3457 24.9761L19.3459 24.9761Q19.4192 25.0022 19.502 25.0022Q19.5847 25.0022 19.6582 24.9761L19.6584 24.9761Q19.7593 24.9402 19.8428 24.8552Q19.9111 24.7856 19.9502 24.7024L19.9502 24.7021Q20.0022 24.5913 20.002 24.4561Q20.002 24.0908 19.7434 23.4167ZM13.4741 25.7927Q13.6296 26.1199 13.7434 26.4167Q14.002 27.0908 14.002 27.4561Q14.0022 27.5913 13.9502 27.7021L13.9502 27.7024Q13.9111 27.7856 13.8428 27.8552Q13.7593 27.9402 13.6584 27.9761L13.6582 27.9761Q13.5847 28.0022 13.502 28.0022Q13.4192 28.0022 13.3459 27.9761L13.3457 27.9761Q13.2446 27.9402 13.1611 27.8552Q13.0928 27.7856 13.0537 27.7021L13.0535 27.7021Q13.0017 27.5913 13.0017 27.4561Q13.0015 26.9944 13.2639 26.2947Q13.3552 26.051 13.4741 25.7927Z" clip-rule="evenodd" fill="url(#paint_linear_9_3122_0)" fill-opacity="1.000000" fill-rule="evenodd"/>
	</g>
</svg>
