<svg width="32.000000" height="32.000000" viewBox="0 0 32 32" fill="none" xmlns="http://www.w3.org/2000/svg" xmlns:xlink="http://www.w3.org/1999/xlink">
	<desc>
			Created with Pixso.
	</desc>
	<defs>
		<clipPath id="clip9_2645">
			<rect id="32icon-grid" rx="0.000000" width="31.000000" height="31.000000" transform="translate(0.500000 0.500000)" fill="white" fill-opacity="0"/>
		</clipPath>
		<clipPath id="clip9_2729">
			<rect id="Color=On" rx="0.000000" width="31.000000" height="31.000000" transform="translate(0.500000 0.500000)" fill="white" fill-opacity="0"/>
		</clipPath>
		<linearGradient x1="24.801502" y1="1.999512" x2="24.801502" y2="12.314333" id="paint_linear_9_2664_0" gradientUnits="userSpaceOnUse">
			<stop stop-color="#F5BD52"/>
			<stop offset="1.000000" stop-color="#F5DA79"/>
		</linearGradient>
		<linearGradient x1="15.999998" y1="2.000000" x2="15.999998" y2="29.999874" id="paint_linear_9_2693_0" gradientUnits="userSpaceOnUse">
			<stop stop-color="#95B6F6"/>
			<stop offset="1.000000" stop-color="#5193DE"/>
		</linearGradient>
		<linearGradient x1="24.802082" y1="2.000244" x2="24.802082" y2="12.314974" id="paint_linear_9_2727_0" gradientUnits="userSpaceOnUse">
			<stop stop-color="#F5BD52"/>
			<stop offset="1.000000" stop-color="#F5DA79"/>
		</linearGradient>
		<linearGradient x1="16.000000" y1="2.000000" x2="16.000000" y2="29.999929" id="paint_linear_9_2728_0" gradientUnits="userSpaceOnUse">
			<stop stop-color="#95B6F6"/>
			<stop offset="1.000000" stop-color="#5193DE"/>
		</linearGradient>
	</defs>
	<g clip-path="url(#clip9_2729)">
		<rect id="outline" rx="0.000000" width="27.001989" height="26.999929" transform="translate(2.500000 2.500000)" fill="#FFFFFF" fill-opacity="0"/>
		<path id="Subtract" d="M29.81 8.76C30.03 7.97 30.05 7.16 29.91 6.4C29.37 7.64 28 8.34 26.64 8C26.2 7.89 25.81 7.67 25.49 7.39C25.35 7.29 25.22 7.17 25.11 7.03C24.91 6.8 24.76 6.52 24.68 6.22L24.67 6.19C24.5 5.69 24.47 5.13 24.61 4.58C24.89 3.46 25.81 2.67 26.88 2.49C26.61 2.37 26.32 2.26 26.01 2.18C23.32 1.46 20.56 2.92 19.6 5.48C20.22 6.03 20.78 6.66 21.25 7.35C21.25 7.07 21.29 6.78 21.37 6.5C21.58 5.7 22.06 5.05 22.69 4.61C22.66 4.73 22.63 4.86 22.61 4.99C22.52 5.58 22.55 6.19 22.71 6.77C22.87 7.34 23.15 7.88 23.53 8.34C23.92 8.8 24.39 9.18 24.93 9.44C25.47 9.7 26.06 9.85 26.66 9.86C26.74 9.86 26.82 9.86 26.9 9.86C26.08 10.61 24.91 10.94 23.75 10.63C23.3 10.51 22.9 10.3 22.55 10.03C22.65 10.35 22.73 10.67 22.8 11C22.86 11 22.93 10.99 23 10.99C24.41 10.99 25.72 11.49 26.74 12.31C28.2 11.68 29.37 10.42 29.81 8.76Z" fill="url(#paint_linear_9_2727_0)" fill-opacity="1.000000" fill-rule="evenodd"/>
		<path id="Union" d="M2 13C2 17.36 4.44 21.13 8 22.91L8 20.6C5.61 19.01 4 16.22 4 13C4 7.96 7.92 4 12.6 4C16.58 4 20 6.85 20.95 10.79L20.95 10.78C21.09 11.33 21.17 11.9 21.21 12.48C21.83 12.17 22.52 12 23.24 12C25.8 12 28 14.16 28 17C28 18.71 27.19 20.17 26 21.07L26 23.39C28.35 22.3 30 19.85 30 17C30 13.13 26.97 10 23.24 10C23.1 10 22.96 10 22.82 10.01C21.56 5.38 17.46 2 12.6 2C6.74 2 2 6.92 2 13ZM18.71 20.2C18.92 20.32 19.25 20.27 19.42 19.97C19.51 19.82 19.63 19.48 19.72 18.95C19.75 18.73 19.78 18.5 19.79 18.27C19.21 18.68 18.77 19.1 18.55 19.47C18.39 19.77 18.5 20.08 18.71 20.2ZM19.79 15.92C20.83 15.33 21.71 15 21.71 15C21.71 15 21.83 15.94 21.83 17.12C21.84 18.42 21.71 20.01 21.15 20.98C20.45 22.19 18.91 22.62 17.71 21.93C16.52 21.24 16.12 19.69 16.82 18.47C17.44 17.41 18.7 16.53 19.79 15.92ZM12.11 21.22C12.32 21.34 12.65 21.28 12.82 20.99C12.91 20.83 13.03 20.5 13.11 19.96C13.15 19.75 13.17 19.52 13.19 19.29C12.61 19.7 12.17 20.12 11.95 20.49C11.78 20.78 11.9 21.09 12.11 21.22ZM13.19 16.93C14.23 16.35 15.11 16.02 15.11 16.02C15.11 16.02 15.23 16.96 15.23 18.14C15.24 19.44 15.11 21.02 14.55 21.99C13.85 23.21 12.31 23.64 11.11 22.95C9.92 22.26 9.52 20.71 10.22 19.49C10.83 18.43 12.1 17.54 13.19 16.93ZM21.67 26.11C21.51 26.4 21.18 26.45 20.97 26.33C20.76 26.21 20.64 25.9 20.81 25.61C21.02 25.24 21.46 24.82 22.05 24.4C22.03 24.64 22 24.86 21.97 25.08C21.88 25.62 21.77 25.95 21.67 26.11ZM23.97 21.13C23.97 21.13 23.09 21.47 22.04 22.05C20.95 22.66 19.69 23.54 19.08 24.61C18.37 25.83 18.77 27.37 19.97 28.06C21.16 28.75 22.7 28.33 23.41 27.11C23.97 26.14 24.09 24.55 24.09 23.25C24.08 22.07 23.97 21.13 23.97 21.13ZM14.25 27.93C14.46 28.05 14.79 28 14.96 27.71C15.05 27.55 15.17 27.22 15.25 26.68C15.29 26.47 15.31 26.24 15.33 26.01C14.75 26.42 14.3 26.84 14.09 27.21C13.92 27.5 14.04 27.81 14.25 27.93ZM15.33 23.65C16.37 23.07 17.25 22.73 17.25 22.73C17.25 22.73 17.37 23.67 17.37 24.86C17.37 26.15 17.25 27.74 16.69 28.71C15.99 29.93 14.45 30.36 13.25 29.66C12.05 28.97 11.65 27.43 12.36 26.21C12.97 25.15 14.24 24.26 15.33 23.65Z" fill="url(#paint_linear_9_2728_0)" fill-opacity="1.000000" fill-rule="evenodd"/>
	</g>
</svg>
