<svg width="32.000000" height="32.000000" viewBox="0 0 32 32" fill="none" xmlns="http://www.w3.org/2000/svg" xmlns:xlink="http://www.w3.org/1999/xlink">
	<desc>
			Created with Pixso.
	</desc>
	<defs>
		<clipPath id="clip9_4006">
			<rect id="32icon-grid" rx="0.000000" width="31.000000" height="31.000000" transform="translate(0.500000 0.500000)" fill="white" fill-opacity="0"/>
		</clipPath>
		<clipPath id="clip9_4034">
			<rect id="Color=On" rx="0.000000" width="31.000000" height="31.000000" transform="translate(0.500000 0.500000)" fill="white" fill-opacity="0"/>
		</clipPath>
		<linearGradient x1="15.997947" y1="4.000000" x2="15.997947" y2="28.000000" id="paint_linear_9_4007_0" gradientUnits="userSpaceOnUse">
			<stop stop-color="#B2D4F7"/>
			<stop offset="1.000000" stop-color="#D9E2F3"/>
		</linearGradient>
		<linearGradient x1="15.998033" y1="4.000000" x2="15.998033" y2="28.000000" id="paint_linear_9_4020_0" gradientUnits="userSpaceOnUse">
			<stop stop-color="#B2D4F7"/>
			<stop offset="1.000000" stop-color="#D9E2F3"/>
		</linearGradient>
	</defs>
	<g clip-path="url(#clip9_4034)">
		<path id="outline" d="M13.99 16L8.88 18.99L4.82 17.13L3.99 18.96L6.76 20.23L5.24 21.12L6.23 22.85L7.75 21.96L7.45 25.03L9.43 25.21L9.87 20.72L14.98 17.73L14.98 23.75L11.36 26.38L12.54 27.99L14.98 26.22L14.98 28L16.98 28L16.98 26.22L19.43 27.99L20.6 26.38L16.98 23.75L16.98 17.75L22.11 20.75L22.55 25.23L24.53 25.05L24.23 21.98L25.75 22.87L26.74 21.14L25.22 20.25L27.98 18.98L27.15 17.15L23.1 19.01L17.95 16L23.08 12.99L27.16 14.87L28 13.04L25.2 11.75L26.74 10.85L25.75 9.12L24.24 10L24.54 6.97L22.56 6.78L22.12 11.24L16.98 14.25L16.98 8.26L20.63 5.62L19.45 4L16.98 5.79L16.98 4L14.98 4L14.98 5.76L12.56 4L11.39 5.62L14.98 8.23L14.98 14.26L9.88 11.28L9.44 6.76L7.46 6.95L7.76 10.04L6.22 9.14L5.23 10.87L6.74 11.76L4 13.02L4.84 14.85L8.86 13L13.99 16Z" fill="url(#paint_linear_9_4020_0)" fill-opacity="1.000000" fill-rule="evenodd"/>
	</g>
</svg>
