<svg width="32.000000" height="32.000000" viewBox="0 0 32 32" fill="none" xmlns="http://www.w3.org/2000/svg" xmlns:xlink="http://www.w3.org/1999/xlink">
	<desc>
			Created with Pixso.
	</desc>
	<defs>
		<clipPath id="clip9_1770">
			<rect id="32icon-grid" rx="0.000000" width="31.000000" height="31.000000" transform="translate(0.500000 0.500000)" fill="white" fill-opacity="0"/>
		</clipPath>
		<clipPath id="clip9_1785">
			<rect id="Color=On" rx="0.000000" width="31.000000" height="31.000000" transform="translate(0.500000 0.500000)" fill="white" fill-opacity="0"/>
		</clipPath>
		<linearGradient x1="19.105881" y1="4.408319" x2="12.894224" y2="27.590538" id="paint_linear_9_1771_0" gradientUnits="userSpaceOnUse">
			<stop stop-color="#F5BD52"/>
			<stop offset="1.000000" stop-color="#F5DA79"/>
		</linearGradient>
		<linearGradient x1="19.105759" y1="4.408807" x2="12.894102" y2="27.591026" id="paint_linear_9_1784_0" gradientUnits="userSpaceOnUse">
			<stop stop-color="#F5BD52"/>
			<stop offset="1.000000" stop-color="#F5DA79"/>
		</linearGradient>
	</defs>
	<g clip-path="url(#clip9_1785)">
		<path id="outline" d="M27.59 19.1C28.05 17.38 28.11 15.65 27.83 14.01C27.46 15.2 26.8 16.23 25.94 17.04L25.94 17.04C25.3 17.68 24.55 18.18 23.72 18.53C22.79 18.92 21.78 19.11 20.77 19.09C19.76 19.06 18.76 18.82 17.85 18.38C16.94 17.93 16.14 17.3 15.49 16.53C14.85 15.75 14.37 14.84 14.1 13.87C13.84 12.89 13.78 11.87 13.94 10.87C14.1 9.87 14.47 8.92 15.02 8.07C15.54 7.28 16.21 6.61 16.99 6.08C17.99 5.39 19.16 4.95 20.4 4.83C19.98 4.67 19.55 4.52 19.1 4.4C12.7 2.69 6.12 6.49 4.4 12.89C2.69 19.29 6.49 25.87 12.89 27.59C19.29 29.3 25.87 25.5 27.59 19.1ZM25.04 20.26C23.02 24.56 18.15 26.93 13.41 25.65C8.07 24.22 4.91 18.74 6.34 13.41C7.32 9.72 10.24 7.07 13.71 6.26C13.55 6.46 13.39 6.68 13.25 6.9C12.52 8 12.04 9.24 11.84 10.54C11.63 11.83 11.71 13.16 12.05 14.43C12.4 15.7 13.02 16.87 13.86 17.88C14.7 18.9 15.74 19.71 16.93 20.29C18.11 20.86 19.4 21.18 20.71 21.21C22.03 21.25 23.33 21 24.54 20.49C24.71 20.42 24.88 20.34 25.04 20.26ZM25.86 8.61L25.33 7L24.81 8.61L23.11 8.61L24.48 9.61L23.96 11.22L25.33 10.22L26.7 11.22L26.18 9.61L27.55 8.61L25.86 8.61ZM19.33 7L19.86 8.61L21.55 8.61L20.18 9.61L20.7 11.22L19.33 10.22L17.96 11.22L18.48 9.61L17.11 8.61L18.81 8.61L19.33 7ZM22.86 12.61L22.33 11L21.81 12.61L20.11 12.61L21.48 13.61L20.96 15.22L22.33 14.22L23.7 15.22L23.18 13.61L24.55 12.61L22.86 12.61Z" fill="url(#paint_linear_9_1784_0)" fill-opacity="1.000000" fill-rule="evenodd"/>
	</g>
</svg>
