<svg width="15.000000" height="30.000000" viewBox="0 0 15 30" fill="none" xmlns="http://www.w3.org/2000/svg" xmlns:xlink="http://www.w3.org/1999/xlink">
	<desc>
			Created with Pixso.
	</desc>
	<defs/>
	<path id="Vector" d="M12.5 16.9L12.5 5C12.5 2.23 10.26 0 7.5 0C4.73 0 2.5 2.23 2.5 5L2.5 16.9C0.96 18.28 0 20.27 0 22.5C0 26.64 3.35 30 7.5 30C11.64 30 15 26.64 15 22.5C15 20.27 14.03 18.28 12.5 16.9ZM7.5 27.5C4.73 27.5 2.5 25.26 2.5 22.5C2.5 21.05 3.11 19.71 4.16 18.77L5 18.02L5 5C5 3.61 6.11 2.5 7.5 2.5C8.88 2.5 10 3.61 10 5L10 18.02L10.83 18.77C11.88 19.71 12.5 21.05 12.5 22.5C12.5 25.26 10.26 27.5 7.5 27.5ZM8.43 18.86L8.43 5.62C8.43 5.1 8.01 4.68 7.5 4.68C6.98 4.68 6.56 5.1 6.56 5.62L6.56 18.86C4.94 19.28 3.75 20.75 3.75 22.5C3.75 24.57 5.42 26.25 7.5 26.25C9.57 26.25 11.25 24.57 11.25 22.5C11.25 20.75 10.05 19.28 8.43 18.86Z" fill="#FFFFFF" fill-opacity="1.000000" fill-rule="evenodd"/>
</svg>
