<svg width="32.000000" height="32.000000" viewBox="0 0 32 32" fill="none" xmlns="http://www.w3.org/2000/svg" xmlns:xlink="http://www.w3.org/1999/xlink">
	<desc>
			Created with Pixso.
	</desc>
	<defs>
		<clipPath id="clip9_4085">
			<rect id="32icon-grid" rx="-0.500000" width="31.000000" height="31.000000" transform="translate(0.500000 0.500000)" fill="white" fill-opacity="0"/>
		</clipPath>
		<clipPath id="clip9_4101">
			<rect id="Color=On" rx="-0.500000" width="31.000000" height="31.000000" transform="translate(0.500000 0.500000)" fill="white" fill-opacity="0"/>
		</clipPath>
		<linearGradient x1="15.999668" y1="6.999512" x2="15.999668" y2="26.000580" id="paint_linear_9_4086_0" gradientUnits="userSpaceOnUse">
			<stop stop-color="#CED3EA"/>
			<stop offset="1.000000" stop-color="#7E83A9"/>
		</linearGradient>
		<linearGradient x1="16.000000" y1="7.000000" x2="16.000000" y2="26.000090" id="paint_linear_9_4100_0" gradientUnits="userSpaceOnUse">
			<stop stop-color="#CED3EA"/>
			<stop offset="1.000000" stop-color="#7E83A9"/>
		</linearGradient>
	</defs>
	<g clip-path="url(#clip9_4101)">
		<path id="outline" d="M14 10.99L14 10.98L8.33 10.98L13.76 9.02L13.76 9.02C13.87 8.99 13.98 8.98 14.08 8.99C14.1 8.99 14.11 8.99 14.12 9L14.13 9C14.27 9.01 14.41 9.06 14.54 9.14L14.54 9.14C14.66 9.22 14.77 9.33 14.85 9.45L14.85 9.45C14.93 9.58 14.98 9.72 15 9.86L15 9.86C15.02 10.01 15 10.16 14.96 10.3L14.96 10.3C14.91 10.44 14.83 10.57 14.73 10.68L14.73 10.68C14.63 10.79 14.51 10.87 14.37 10.92L14.37 10.92C14.35 10.93 14.34 10.93 14.33 10.94C14.22 10.97 14.11 10.99 14 10.99ZM4 10.42L4 12.98L13.97 12.98C14.35 12.99 14.73 12.92 15.09 12.78L15.09 12.78C15.36 12.68 15.61 12.54 15.84 12.36C15.96 12.27 16.07 12.16 16.18 12.05L16.18 12.05C16.48 11.73 16.71 11.35 16.85 10.92L16.85 10.92C16.99 10.5 17.03 10.05 16.98 9.61L16.98 9.61C16.92 9.17 16.77 8.75 16.53 8.38L16.53 8.38C16.29 8 15.97 7.69 15.6 7.45L15.6 7.45C15.47 7.37 15.33 7.3 15.19 7.24C14.93 7.12 14.64 7.05 14.36 7.02L14.36 7.02C13.93 6.97 13.5 7.01 13.09 7.14L13.08 7.14L13.05 7.15L13.05 7.15L13.05 7.15L13.05 7.15L4 10.42ZM4 18.99L4 21.05L17.2 25.75L17.2 25.75C17.68 25.94 18.19 26.02 18.71 25.99C18.9 25.98 19.1 25.95 19.29 25.9C19.6 25.83 19.89 25.72 20.17 25.57C20.62 25.32 21.02 24.98 21.32 24.56C21.62 24.15 21.83 23.67 21.93 23.17C22.03 22.66 22.02 22.14 21.89 21.64C21.76 21.14 21.53 20.68 21.2 20.28C21 20.03 20.77 19.82 20.51 19.64C20.35 19.52 20.18 19.42 20 19.34C19.54 19.12 19.03 19 18.52 19L18.52 18.99L4 18.99ZM18.51 20.99L9.81 20.99L17.98 23.9L17.98 23.9C18.17 23.97 18.38 24 18.59 23.99C18.81 23.98 19.02 23.92 19.21 23.81C19.41 23.71 19.58 23.56 19.71 23.38C19.84 23.2 19.93 23 19.97 22.78C20.01 22.57 20 22.34 19.95 22.13C19.9 21.92 19.8 21.72 19.66 21.55C19.52 21.38 19.34 21.24 19.14 21.14C18.94 21.05 18.73 21 18.51 21L18.51 21L18.51 21L18.51 20.99ZM23.01 11.24L23.01 11.24L22.03 9.5L22.03 9.5L22.03 9.5C22.56 9.2 23.16 9.02 23.77 8.99C23.86 8.98 23.94 8.98 24.03 8.98C24.55 8.99 25.07 9.09 25.55 9.3C26.12 9.54 26.62 9.9 27.02 10.36C27.42 10.83 27.71 11.38 27.86 11.97C28.02 12.56 28.04 13.18 27.91 13.78C27.79 14.38 27.53 14.95 27.16 15.43C26.84 15.84 26.44 16.19 25.99 16.45C25.91 16.5 25.84 16.54 25.76 16.58C25.21 16.85 24.6 16.99 23.99 16.99L23.99 16.98L4 16.98L4 14.98L23.99 14.98L23.99 14.98C24.3 14.98 24.6 14.91 24.87 14.78C25.15 14.64 25.39 14.45 25.58 14.21C25.76 13.96 25.89 13.68 25.95 13.38C26.01 13.08 26.01 12.77 25.93 12.48C25.85 12.18 25.71 11.91 25.51 11.68C25.31 11.44 25.05 11.26 24.77 11.14C24.49 11.02 24.19 10.97 23.88 10.99C23.58 11.01 23.28 11.09 23.01 11.24Z" fill="url(#paint_linear_9_4100_0)" fill-opacity="1.000000" fill-rule="evenodd"/>
	</g>
</svg>
